#!OML:ASF F:\VICON\USERDATA\INSTALL\rory3\rory3.ASF
:FULLY-SPECIFIED
:DEGREES
813
root 4.19029 15.9362 1.97826 23.48 -4.30212 -3.10182
lowerback 9.01481 -0.775517 2.29891
upperback 9.09859 -0.901838 -0.905567
thorax 4.39232 -0.301876 -2.18496
lowerneck -18.5218 -0.472187 -1.91907
upperneck 38.989 0.553187 -1.4023
head 17.4653 -0.293998 -0.19555
rclavicle 1.55052e-014 5.56597e-015
rhumerus -61.8409 72.9875 -60.0048
rradius 55.729
rwrist -15.8412
rhand -8.91702 -41.2565
rfingers 7.12502
rthumb 17.0263 -70.5304
lclavicle 1.55052e-014 5.56597e-015
lhumerus -45.2743 -79.6838 36.7577
lradius 58.5553
lwrist 63.1817
lhand -26.013 -26.2865
lfingers 7.12502
lthumb 0.533193 3.69253
rfemur -75.948 -1.65676 20.6812
rtibia 37.1927
rfoot 36.1909 -0.244157
rtoes 0.235515
lfemur -57.4363 0.176114 -26.5771
ltibia 59.2337
lfoot -23.669 6.61708
ltoes 9.66913
814
root 4.18899 15.9356 1.98019 23.4476 -4.34146 -3.03646
lowerback 9.04614 -0.768522 2.22158
upperback 9.11353 -0.895428 -0.931835
thorax 4.39163 -0.301926 -2.16907
lowerneck -18.4491 -0.49266 -2.03387
upperneck 38.9598 0.50264 -1.25535
head 17.4292 -0.309933 -0.11754
rclavicle -4.37326e-015 8.74653e-015
rhumerus -62.4462 73.1127 -60.6107
rradius 55.8915
rwrist -16.0262
rhand -9.44767 -41.5628
rfingers 7.12502
rthumb 16.5155 -70.8799
lclavicle -4.37326e-015 8.74653e-015
lhumerus -45.4809 -79.6581 36.9683
lradius 58.5505
lwrist 63.2932
lhand -25.307 -25.0476
lfingers 7.12502
lthumb 1.2151 4.92869
rfemur -75.9053 -1.65215 20.602
rtibia 37.2052
rfoot 36.117 -0.209697
rtoes 0.0832192
lfemur -57.3948 0.164164 -26.6405
ltibia 59.2253
lfoot -23.7409 6.63743
ltoes 9.22694
815
root 4.18793 15.9331 1.98149 23.4455 -4.37406 -2.93778
lowerback 9.04127 -0.76312 2.11528
upperback 9.12583 -0.893282 -0.957157
thorax 4.40803 -0.305469 -2.13613
lowerneck -18.3739 -0.49874 -2.08816
upperneck 38.8983 0.491193 -1.20769
head 17.3753 -0.314759 -0.0876181
rclavicle 2.38542e-015 6.75868e-015
rhumerus -62.3642 73.0662 -60.5366
rradius 56.0184
rwrist -16.0293
rhand -9.65015 -41.7698
rfingers 7.12502
rthumb 16.3205 -71.103
lclavicle 2.38542e-015 6.75868e-015
lhumerus -45.6147 -79.7009 37.1105
lradius 58.575
lwrist 63.409
lhand -24.5148 -23.7574
lfingers 7.12502
lthumb 1.98019 6.2132
rfemur -75.9095 -1.65335 20.4697
rtibia 37.209
rfoot 36.1438 -0.28512
rtoes 0.216972
lfemur -57.3702 0.131278 -26.741
ltibia 59.2258
lfoot -23.7915 6.57616
ltoes 9.3274
816
root 4.19022 15.9341 1.98506 23.5399 -4.33066 -3.04978
lowerback 8.92507 -0.772482 2.26957
upperback 9.10502 -0.900907 -0.924009
thorax 4.44871 -0.301508 -2.18898
lowerneck -18.3137 -0.487938 -2.10637
upperneck 38.8585 0.500166 -1.18055
head 17.3375 -0.309433 -0.0698043
rclavicle 8.34896e-015 -1.47101e-014
rhumerus -61.9769 72.93 -60.1551
rradius 56.0833
rwrist -15.7707
rhand -8.94367 -41.3641
rfingers 7.12502
rthumb 17.0007 -70.6401
lclavicle 8.34896e-015 -1.47101e-014
lhumerus -45.7894 -79.677 37.3247
lradius 58.5707
lwrist 63.4221
lhand -25.2504 -25.0732
lfingers 7.12502
lthumb 1.26968 4.9028
rfemur -75.9785 -1.70132 20.6699
rtibia 37.2052
rfoot 36.157 -0.191077
rtoes 0.391814
lfemur -57.4468 0.116933 -26.6202
ltibia 59.2332
lfoot -23.7893 6.55888
ltoes 9.72084
